# xmcd
#
# Track frame offsets:
#	150
#	13490
#	29610
#	44687
#	63930
#	78917
#	91970
#	105612
#	118892
#	133807
#	150647
#	168345
#	182540
#	198785
#	215037
#	230410
#	242032
#	254022
#
# Disc length: 3530 seconds
#
# Revision: 1
# Processed by: cddbd v1.4PL0 Copyright (c) Steve Scherf et al.
# Submitted via: EasyCDDAExtractor 6.2.0.3
#
DISCID=010dc812
DTITLE=Don Williams - The Best Of
DYEAR=2003
DGENRE=Country
TTITLE0=One Good Well
TTITLE1=I've Been Loved By the Best
TTITLE2=Just As Long As I Have You
TTITLE3=Maybe That's All It Takes
TTITLE4=Back In My Younger Days
TTITLE5=True Love
TTITLE6=Lord have Mercy On A Country Boy
TTITLE7=Too Much Love
TTITLE8=It's Who You Love
TTITLE9=Darlin'That's What Your Love Does
TTITLE10=Loving You's Like coming Home
TTITLE11=Lone Star State Of Mind
TTITLE12=Leam To Let It Go
TTITLE13=Cryin'Eyes
TTITLE14=Only Water (Shining In The Air)
TTITLE15=Back On The Street Again
TTITLE16=Flowers Won't Grow (In Gardens Of Stone
TTITLE17=We're All The Way
EXTD=
EXTT0=
EXTT1=
EXTT2=
EXTT3=
EXTT4=
EXTT5=
EXTT6=
EXTT7=
EXTT8=
EXTT9=
EXTT10=
EXTT11=
EXTT12=
EXTT13=
EXTT14=
EXTT15=
EXTT16=
EXTT17=
PLAYORDER=
